{
  "accessors": [
    {
      "bufferView": 2,
      "componentType": 5126,
      "count": 65532,
      "max": [
        18.865137100219727,
        10.476102828979492,
        18.656064987182617
      ],
      "min": [
        -13.521890640258789,
        -12.016268730163574,
        -20.297842025756836
      ],
      "type": "VEC3"
    },
    {
      "bufferView": 2,
      "byteOffset": 786384,
      "componentType": 5126,
      "count": 65532,
      "max": [
        0.9962878227233887,
        0.9954566359519958,
        0.9948986768722534
      ],
      "min": [
        -0.9999511241912842,
        -0.9999983310699463,
        -0.9999849796295166
      ],
      "type": "VEC3"
    },
    {
      "bufferView": 1,
      "componentType": 5126,
      "count": 65532,
      "max": [
        0.9960767030715942,
        0.9978542327880859
      ],
      "min": [
        0.00013522873632609844,
        1.5011057257652283e-05
      ],
      "type": "VEC2"
    },
    {
      "bufferView": 0,
      "componentType": 5125,
      "count": 346245,
      "type": "SCALAR"
    },
    {
      "bufferView": 2,
      "byteOffset": 1572768,
      "componentType": 5126,
      "count": 65532,
      "max": [
        16.91901397705078,
        10.655420303344727,
        18.37129020690918
      ],
      "min": [
        -13.244327545166016,
        -8.9573392868042,
        -20.234270095825195
      ],
      "type": "VEC3"
    },
    {
      "bufferView": 2,
      "byteOffset": 2359152,
      "componentType": 5126,
      "count": 65532,
      "max": [
        0.9991017580032349,
        0.9974558353424072,
        0.9990947246551514
      ],
      "min": [
        -0.9999428987503052,
        -0.999990701675415,
        -0.9999967813491821
      ],
      "type": "VEC3"
    },
    {
      "bufferView": 1,
      "byteOffset": 524256,
      "componentType": 5126,
      "count": 65532,
      "max": [
        0.9999125003814697,
        0.9996183514595032
      ],
      "min": [
        0.00014017734793014824,
        7.382746116491035e-05
      ],
      "type": "VEC2"
    },
    {
      "bufferView": 0,
      "byteOffset": 1384980,
      "componentType": 5125,
      "count": 315387,
      "type": "SCALAR"
    },
    {
      "bufferView": 2,
      "byteOffset": 3145536,
      "componentType": 5126,
      "count": 22244,
      "max": [
        18.882490158081055,
        6.993981838226318,
        18.465559005737305
      ],
      "min": [
        -13.356107711791992,
        -11.976029396057129,
        -10.890090942382813
      ],
      "type": "VEC3"
    },
    {
      "bufferView": 2,
      "byteOffset": 3412464,
      "componentType": 5126,
      "count": 22244,
      "max": [
        0.9983916878700256,
        0.9988937377929688,
        0.9984418749809265
      ],
      "min": [
        -0.999817967414856,
        -0.9999725222587585,
        -0.9999967813491821
      ],
      "type": "VEC3"
    },
    {
      "bufferView": 1,
      "byteOffset": 1048512,
      "componentType": 5126,
      "count": 22244,
      "max": [
        0.9987874627113342,
        0.9999210238456726
      ],
      "min": [
        0.0001876329188235104,
        0.00010818243026733398
      ],
      "type": "VEC2"
    },
    {
      "bufferView": 0,
      "byteOffset": 2646528,
      "componentType": 5125,
      "count": 76842,
      "type": "SCALAR"
    },
    {
      "bufferView": 2,
      "byteOffset": 3679392,
      "componentType": 5126,
      "count": 65532,
      "max": [
        12.915924072265625,
        10.666481971740723,
        3.962444543838501
      ],
      "min": [
        -9.54955768585205,
        -5.563796043395996,
        -19.01776885986328
      ],
      "type": "VEC3"
    },
    {
      "bufferView": 2,
      "byteOffset": 4465776,
      "componentType": 5126,
      "count": 65532,
      "max": [
        0.9998033046722412,
        0.9992903470993042,
        0.9978871941566467
      ],
      "min": [
        -0.9999130368232727,
        -0.9999805688858032,
        -0.9999980926513672
      ],
      "type": "VEC3"
    },
    {
      "bufferView": 1,
      "byteOffset": 1226464,
      "componentType": 5126,
      "count": 65532,
      "max": [
        0.9989377856254578,
        0.9966230392456055
      ],
      "min": [
        3.612732689362019e-05,
        0.0002961746067740023
      ],
      "type": "VEC2"
    },
    {
      "bufferView": 0,
      "byteOffset": 2953896,
      "componentType": 5125,
      "count": 345354,
      "type": "SCALAR"
    },
    {
      "bufferView": 2,
      "byteOffset": 5252160,
      "componentType": 5126,
      "count": 65533,
      "max": [
        16.886817932128906,
        10.666481971740723,
        19.394338607788086
      ],
      "min": [
        -12.259546279907227,
        -11.300235748291016,
        -19.04895782470703
      ],
      "type": "VEC3"
    },
    {
      "bufferView": 2,
      "byteOffset": 6038556,
      "componentType": 5126,
      "count": 65533,
      "max": [
        0.9995391964912415,
        0.9959849715232849,
        0.9984160661697388
      ],
      "min": [
        -0.9999408721923828,
        -0.9999892711639404,
        -0.9999649524688721
      ],
      "type": "VEC3"
    },
    {
      "bufferView": 1,
      "byteOffset": 1750720,
      "componentType": 5126,
      "count": 65533,
      "max": [
        0.9989840984344482,
        0.9999047517776489
      ],
      "min": [
        9.184889495372772e-05,
        1.7825979739427567e-05
      ],
      "type": "VEC2"
    },
    {
      "bufferView": 0,
      "byteOffset": 4335312,
      "componentType": 5125,
      "count": 310764,
      "type": "SCALAR"
    },
    {
      "bufferView": 2,
      "byteOffset": 6824952,
      "componentType": 5126,
      "count": 21275,
      "max": [
        16.833097457885742,
        10.545795440673828,
        19.410337448120117
      ],
      "min": [
        -12.911382675170898,
        -11.828832626342773,
        -17.018606185913086
      ],
      "type": "VEC3"
    },
    {
      "bufferView": 2,
      "byteOffset": 7080252,
      "componentType": 5126,
      "count": 21275,
      "max": [
        0.9997835159301758,
        0.9977697730064392,
        0.9999876618385315
      ],
      "min": [
        -0.9997937083244324,
        -0.9999455213546753,
        -0.999891996383667
      ],
      "type": "VEC3"
    },
    {
      "bufferView": 1,
      "byteOffset": 2274984,
      "componentType": 5126,
      "count": 21275,
      "max": [
        0.998799204826355,
        0.9999043345451355
      ],
      "min": [
        7.725787872914225e-05,
        3.748326662389445e-06
      ],
      "type": "VEC2"
    },
    {
      "bufferView": 0,
      "byteOffset": 5578368,
      "componentType": 5125,
      "count": 75822,
      "type": "SCALAR"
    },
    {
      "bufferView": 2,
      "byteOffset": 7335552,
      "componentType": 5126,
      "count": 65532,
      "max": [
        18.186973571777344,
        11.001832962036133,
        18.218717575073242
      ],
      "min": [
        -14.863870620727539,
        -11.708054542541504,
        -18.738792419433594
      ],
      "type": "VEC3"
    },
    {
      "bufferView": 2,
      "byteOffset": 8121936,
      "componentType": 5126,
      "count": 65532,
      "max": [
        0.99958336353302,
        0.9784135818481445,
        0.9999335408210754
      ],
      "min": [
        -0.9999794960021973,
        -0.999992311000824,
        -0.9999998807907104
      ],
      "type": "VEC3"
    },
    {
      "bufferView": 1,
      "byteOffset": 2445184,
      "componentType": 5126,
      "count": 65532,
      "max": [
        0.9949708580970764,
        0.993796169757843
      ],
      "min": [
        0.00039110812940634787,
        9.824731387197971e-05
      ],
      "type": "VEC2"
    },
    {
      "bufferView": 0,
      "byteOffset": 5881656,
      "componentType": 5125,
      "count": 344862,
      "type": "SCALAR"
    },
    {
      "bufferView": 2,
      "byteOffset": 8908320,
      "componentType": 5126,
      "count": 65532,
      "max": [
        15.111406326293945,
        11.007052421569824,
        18.634965896606445
      ],
      "min": [
        -13.27906608581543,
        -10.771383285522461,
        -18.744915008544922
      ],
      "type": "VEC3"
    },
    {
      "bufferView": 2,
      "byteOffset": 9694704,
      "componentType": 5126,
      "count": 65532,
      "max": [
        0.9999417662620544,
        0.995537281036377,
        0.9997525215148926
      ],
      "min": [
        -0.9999575018882751,
        -0.999992311000824,
        -0.9999998807907104
      ],
      "type": "VEC3"
    },
    {
      "bufferView": 1,
      "byteOffset": 2969440,
      "componentType": 5126,
      "count": 65532,
      "max": [
        0.9949564933776855,
        0.9999438524246216
      ],
      "min": [
        0.00041458941996097565,
        0.00017259595915675163
      ],
      "type": "VEC2"
    },
    {
      "bufferView": 0,
      "byteOffset": 7261104,
      "componentType": 5125,
      "count": 320940,
      "type": "SCALAR"
    },
    {
      "bufferView": 2,
      "byteOffset": 10481088,
      "componentType": 5126,
      "count": 9796,
      "max": [
        18.046125411987305,
        10.852075576782227,
        18.615209579467773
      ],
      "min": [
        -15.482242584228516,
        -11.909634590148926,
        -14.764165878295898
      ],
      "type": "VEC3"
    },
    {
      "bufferView": 2,
      "byteOffset": 10598640,
      "componentType": 5126,
      "count": 9796,
      "max": [
        0.9997904896736145,
        0.9959232807159424,
        0.9976455569267273
      ],
      "min": [
        -0.9999831318855286,
        -0.9994542002677917,
        -0.9999436736106873
      ],
      "type": "VEC3"
    },
    {
      "bufferView": 1,
      "byteOffset": 3493696,
      "componentType": 5126,
      "count": 9796,
      "max": [
        0.9946869611740112,
        0.9957745671272278
      ],
      "min": [
        0.014371244236826897,
        0.01890316605567932
      ],
      "type": "VEC2"
    },
    {
      "bufferView": 0,
      "byteOffset": 8544864,
      "componentType": 5125,
      "count": 39408,
      "type": "SCALAR"
    },
    {
      "bufferView": 2,
      "byteOffset": 10716192,
      "componentType": 5126,
      "count": 65532,
      "max": [
        17.368505477905273,
        10.815909385681152,
        19.18128776550293
      ],
      "min": [
        -16.108407974243164,
        -11.098508834838867,
        -20.497385025024414
      ],
      "type": "VEC3"
    },
    {
      "bufferView": 2,
      "byteOffset": 11502576,
      "componentType": 5126,
      "count": 65532,
      "max": [
        0.9997355341911316,
        0.9812795519828796,
        0.9995375871658325
      ],
      "min": [
        -0.9997818470001221,
        -0.9999997019767761,
        -0.9999715089797974
      ],
      "type": "VEC3"
    },
    {
      "bufferView": 1,
      "byteOffset": 3572064,
      "componentType": 5126,
      "count": 65532,
      "max": [
        0.9996612668037415,
        0.9901700615882874
      ],
      "min": [
        0.0033117830753326416,
        0.0010367128998041153
      ],
      "type": "VEC2"
    },
    {
      "bufferView": 0,
      "byteOffset": 8702496,
      "componentType": 5125,
      "count": 344460,
      "type": "SCALAR"
    },
    {
      "bufferView": 2,
      "byteOffset": 12288960,
      "componentType": 5126,
      "count": 65532,
      "max": [
        17.353046417236328,
        10.817089080810547,
        18.363420486450195
      ],
      "min": [
        -16.153738021850586,
        -12.0394868850708,
        -20.461326599121094
      ],
      "type": "VEC3"
    },
    {
      "bufferView": 2,
      "byteOffset": 13075344,
      "componentType": 5126,
      "count": 65532,
      "max": [
        0.9997355341911316,
        0.9980348348617554,
        0.9996165037155151
      ],
      "min": [
        -0.9999082684516907,
        -0.9999874830245972,
        -0.9999707937240601
      ],
      "type": "VEC3"
    },
    {
      "bufferView": 1,
      "byteOffset": 4096320,
      "componentType": 5126,
      "count": 65532,
      "max": [
        0.9999163150787354,
        0.9998651146888733
      ],
      "min": [
        0.00023106718435883522,
        0.0002863090776372701
      ],
      "type": "VEC2"
    },
    {
      "bufferView": 0,
      "byteOffset": 10080336,
      "componentType": 5125,
      "count": 312054,
      "type": "SCALAR"
    },
    {
      "bufferView": 2,
      "byteOffset": 13861728,
      "componentType": 5126,
      "count": 20030,
      "max": [
        17.062469482421875,
        3.2123305797576904,
        19.162046432495117
      ],
      "min": [
        -9.261474609375,
        -12.009577751159668,
        -1.1941545009613037
      ],
      "type": "VEC3"
    },
    {
      "bufferView": 2,
      "byteOffset": 14102088,
      "componentType": 5126,
      "count": 20030,
      "max": [
        0.9952187538146973,
        0.9998085498809814,
        0.9993950128555298
      ],
      "min": [
        -0.9999761581420898,
        -0.9999192357063293,
        -0.9999406337738037
      ],
      "type": "VEC3"
    },
    {
      "bufferView": 1,
      "byteOffset": 4620576,
      "componentType": 5126,
      "count": 20030,
      "max": [
        0.9980461597442627,
        0.9992818236351013
      ],
      "min": [
        0.001131235039792955,
        0.0003676731139421463
      ],
      "type": "VEC2"
    },
    {
      "bufferView": 0,
      "byteOffset": 11328552,
      "componentType": 5125,
      "count": 70794,
      "type": "SCALAR"
    }
  ],
  "asset": {
    "extras": {
      "author": "Sara Carena (https://sketchfab.com/saracarena1)",
      "license": "CC-BY-NC-4.0 (http://creativecommons.org/licenses/by-nc/4.0/)",
      "source": "https://sketchfab.com/3d-models/badlands-spain-db8f95dddda44cf7b57755d9253c8366",
      "title": "Badlands, Spain"
    },
    "generator": "Sketchfab-12.56.0",
    "version": "2.0"
  },
  "bufferViews": [
    {
      "buffer": 0,
      "byteLength": 11611728,
      "name": "floatBufferViews",
      "target": 34963
    },
    {
      "buffer": 0,
      "byteLength": 4780816,
      "byteOffset": 11611728,
      "byteStride": 8,
      "name": "floatBufferViews",
      "target": 34962
    },
    {
      "buffer": 0,
      "byteLength": 14342448,
      "byteOffset": 16392544,
      "byteStride": 12,
      "name": "floatBufferViews",
      "target": 34962
    }
  ],
  "buffers": [
    {
      "byteLength": 30734992,
      "uri": "scene.bin"
    }
  ],
  "extensionsUsed": [
    "KHR_materials_unlit"
  ],
  "images": [
    {
      "uri": "textures/material2_baseColor.jpeg"
    },
    {
      "uri": "textures/material0_baseColor.jpeg"
    },
    {
      "uri": "textures/material3_baseColor.jpeg"
    },
    {
      "uri": "textures/material1_baseColor.jpeg"
    }
  ],
  "materials": [
    {
      "doubleSided": true,
      "extensions": {
        "KHR_materials_unlit": {}
      },
      "name": "material2",
      "pbrMetallicRoughness": {
        "baseColorTexture": {
          "index": 0
        },
        "metallicFactor": 0.0
      }
    },
    {
      "doubleSided": true,
      "extensions": {
        "KHR_materials_unlit": {}
      },
      "name": "material0",
      "pbrMetallicRoughness": {
        "baseColorTexture": {
          "index": 1
        },
        "metallicFactor": 0.0
      }
    },
    {
      "doubleSided": true,
      "extensions": {
        "KHR_materials_unlit": {}
      },
      "name": "material3",
      "pbrMetallicRoughness": {
        "baseColorTexture": {
          "index": 2
        },
        "metallicFactor": 0.0
      }
    },
    {
      "doubleSided": true,
      "extensions": {
        "KHR_materials_unlit": {}
      },
      "name": "material1",
      "pbrMetallicRoughness": {
        "baseColorTexture": {
          "index": 3
        },
        "metallicFactor": 0.0
      }
    }
  ],
  "meshes": [
    {
      "name": "Model_material2_0",
      "primitives": [
        {
          "attributes": {
            "NORMAL": 1,
            "POSITION": 0,
            "TEXCOORD_0": 2
          },
          "indices": 3,
          "material": 0,
          "mode": 4
        }
      ]
    },
    {
      "name": "Model_material2_0",
      "primitives": [
        {
          "attributes": {
            "NORMAL": 5,
            "POSITION": 4,
            "TEXCOORD_0": 6
          },
          "indices": 7,
          "material": 0,
          "mode": 4
        }
      ]
    },
    {
      "name": "Model_material2_0",
      "primitives": [
        {
          "attributes": {
            "NORMAL": 9,
            "POSITION": 8,
            "TEXCOORD_0": 10
          },
          "indices": 11,
          "material": 0,
          "mode": 4
        }
      ]
    },
    {
      "name": "Model_material0_0",
      "primitives": [
        {
          "attributes": {
            "NORMAL": 13,
            "POSITION": 12,
            "TEXCOORD_0": 14
          },
          "indices": 15,
          "material": 1,
          "mode": 4
        }
      ]
    },
    {
      "name": "Model_material0_0",
      "primitives": [
        {
          "attributes": {
            "NORMAL": 17,
            "POSITION": 16,
            "TEXCOORD_0": 18
          },
          "indices": 19,
          "material": 1,
          "mode": 4
        }
      ]
    },
    {
      "name": "Model_material0_0",
      "primitives": [
        {
          "attributes": {
            "NORMAL": 21,
            "POSITION": 20,
            "TEXCOORD_0": 22
          },
          "indices": 23,
          "material": 1,
          "mode": 4
        }
      ]
    },
    {
      "name": "Model_material3_0",
      "primitives": [
        {
          "attributes": {
            "NORMAL": 25,
            "POSITION": 24,
            "TEXCOORD_0": 26
          },
          "indices": 27,
          "material": 2,
          "mode": 4
        }
      ]
    },
    {
      "name": "Model_material3_0",
      "primitives": [
        {
          "attributes": {
            "NORMAL": 29,
            "POSITION": 28,
            "TEXCOORD_0": 30
          },
          "indices": 31,
          "material": 2,
          "mode": 4
        }
      ]
    },
    {
      "name": "Model_material3_0",
      "primitives": [
        {
          "attributes": {
            "NORMAL": 33,
            "POSITION": 32,
            "TEXCOORD_0": 34
          },
          "indices": 35,
          "material": 2,
          "mode": 4
        }
      ]
    },
    {
      "name": "Model_material1_0",
      "primitives": [
        {
          "attributes": {
            "NORMAL": 37,
            "POSITION": 36,
            "TEXCOORD_0": 38
          },
          "indices": 39,
          "material": 3,
          "mode": 4
        }
      ]
    },
    {
      "name": "Model_material1_0",
      "primitives": [
        {
          "attributes": {
            "NORMAL": 41,
            "POSITION": 40,
            "TEXCOORD_0": 42
          },
          "indices": 43,
          "material": 3,
          "mode": 4
        }
      ]
    },
    {
      "name": "Model_material1_0",
      "primitives": [
        {
          "attributes": {
            "NORMAL": 45,
            "POSITION": 44,
            "TEXCOORD_0": 46
          },
          "indices": 47,
          "material": 3,
          "mode": 4
        }
      ]
    }
  ],
  "nodes": [
    {
      "children": [
        1
      ],
      "matrix": [
        -0.5357450842857361,
        -0.1359471082687376,
        -0.8333640098571777,
        0.0,
        -0.3734666407108307,
        0.9233189821243286,
        0.08946915715932867,
        0.0,
        0.7572977542877197,
        0.35916632413864147,
        -0.5454353094100951,
        0.0,
        1.876561164855957,
        0.05714796483516674,
        0.8710822463035583,
        1.0
      ],
      "name": "Sketchfab_model"
    },
    {
      "children": [
        2
      ],
      "matrix": [
        1.0,
        0.0,
        0.0,
        0.0,
        0.0,
        -1.0,
        0.0,
        0.0,
        0.0,
        0.0,
        -1.0,
        0.0,
        0.0,
        0.0,
        0.0,
        1.0
      ],
      "name": "model.fbx"
    },
    {
      "children": [
        3
      ],
      "name": "RootNode"
    },
    {
      "children": [
        4,
        5,
        6,
        7,
        8,
        9,
        10,
        11,
        12,
        13,
        14,
        15
      ],
      "name": "Model"
    },
    {
      "mesh": 0,
      "name": "Model_material2_0"
    },
    {
      "mesh": 1,
      "name": "Model_material2_0"
    },
    {
      "mesh": 2,
      "name": "Model_material2_0"
    },
    {
      "mesh": 3,
      "name": "Model_material0_0"
    },
    {
      "mesh": 4,
      "name": "Model_material0_0"
    },
    {
      "mesh": 5,
      "name": "Model_material0_0"
    },
    {
      "mesh": 6,
      "name": "Model_material3_0"
    },
    {
      "mesh": 7,
      "name": "Model_material3_0"
    },
    {
      "mesh": 8,
      "name": "Model_material3_0"
    },
    {
      "mesh": 9,
      "name": "Model_material1_0"
    },
    {
      "mesh": 10,
      "name": "Model_material1_0"
    },
    {
      "mesh": 11,
      "name": "Model_material1_0"
    }
  ],
  "samplers": [
    {
      "magFilter": 9729,
      "minFilter": 9987,
      "wrapS": 10497,
      "wrapT": 10497
    }
  ],
  "scene": 0,
  "scenes": [
    {
      "name": "Sketchfab_Scene",
      "nodes": [
        0
      ]
    }
  ],
  "textures": [
    {
      "sampler": 0,
      "source": 0
    },
    {
      "sampler": 0,
      "source": 1
    },
    {
      "sampler": 0,
      "source": 2
    },
    {
      "sampler": 0,
      "source": 3
    }
  ]
}
