{
  "accessors": [
    {
      "bufferView": 2,
      "componentType": 5126,
      "count": 40248,
      "max": [
        50,
        36.763374328613281,
        1947.971435546875
      ],
      "min": [
        -50,
        -36.763374328613281,
        0
      ],
      "type": "VEC3"
    },
    {
      "bufferView": 2,
      "byteOffset": 482976,
      "componentType": 5126,
      "count": 40248,
      "max": [
        0,
        0,
        1
      ],
      "min": [
        0,
        0,
        1
      ],
      "type": "VEC3"
    },
    {
      "bufferView": 1,
      "componentType": 5126,
      "count": 40248,
      "max": [
        1,
        1
      ],
      "min": [
        0,
        0
      ],
      "type": "VEC2"
    },
    {
      "bufferView": 0,
      "componentType": 5125,
      "count": 239058,
      "max": [
        40247
      ],
      "min": [
        0
      ],
      "type": "SCALAR"
    },
    {
      "bufferView": 2,
      "byteOffset": 965952,
      "componentType": 5126,
      "count": 468,
      "max": [
        50,
        0,
        0
      ],
      "min": [
        -50,
        -895.72283935546875,
        0
      ],
      "type": "VEC3"
    },
    {
      "bufferView": 2,
      "byteOffset": 971568,
      "componentType": 5126,
      "count": 468,
      "max": [
        0,
        0,
        1
      ],
      "min": [
        0,
        0,
        1
      ],
      "type": "VEC3"
    },
    {
      "bufferView": 1,
      "byteOffset": 321984,
      "componentType": 5126,
      "count": 468,
      "max": [
        1,
        1
      ],
      "min": [
        0,
        0
      ],
      "type": "VEC2"
    },
    {
      "bufferView": 0,
      "byteOffset": 956232,
      "componentType": 5125,
      "count": 1398,
      "max": [
        467
      ],
      "min": [
        0
      ],
      "type": "SCALAR"
    },
    {
      "bufferView": 2,
      "byteOffset": 977184,
      "componentType": 5126,
      "count": 468,
      "max": [
        50,
        0,
        0
      ],
      "min": [
        -50,
        -895.72283935546875,
        0
      ],
      "type": "VEC3"
    },
    {
      "bufferView": 2,
      "byteOffset": 982800,
      "componentType": 5126,
      "count": 468,
      "max": [
        0,
        0,
        1
      ],
      "min": [
        0,
        0,
        1
      ],
      "type": "VEC3"
    },
    {
      "bufferView": 1,
      "byteOffset": 325728,
      "componentType": 5126,
      "count": 468,
      "max": [
        1,
        1
      ],
      "min": [
        0,
        0
      ],
      "type": "VEC2"
    },
    {
      "bufferView": 0,
      "byteOffset": 961824,
      "componentType": 5125,
      "count": 1398,
      "max": [
        467
      ],
      "min": [
        0
      ],
      "type": "SCALAR"
    },
    {
      "bufferView": 2,
      "byteOffset": 988416,
      "componentType": 5126,
      "count": 344,
      "max": [
        0,
        36.763374328613281,
        0
      ],
      "min": [
        -895.72283935546875,
        -36.763374328613281,
        0
      ],
      "type": "VEC3"
    },
    {
      "bufferView": 2,
      "byteOffset": 992544,
      "componentType": 5126,
      "count": 344,
      "max": [
        0,
        0,
        1
      ],
      "min": [
        0,
        0,
        1
      ],
      "type": "VEC3"
    },
    {
      "bufferView": 1,
      "byteOffset": 329472,
      "componentType": 5126,
      "count": 344,
      "max": [
        1,
        1
      ],
      "min": [
        0,
        0
      ],
      "type": "VEC2"
    },
    {
      "bufferView": 0,
      "byteOffset": 967416,
      "componentType": 5125,
      "count": 1026,
      "max": [
        343
      ],
      "min": [
        0
      ],
      "type": "SCALAR"
    },
    {
      "bufferView": 2,
      "byteOffset": 996672,
      "componentType": 5126,
      "count": 344,
      "max": [
        895.72283935546875,
        36.763374328613281,
        0
      ],
      "min": [
        -0,
        -36.763374328613281,
        0
      ],
      "type": "VEC3"
    },
    {
      "bufferView": 2,
      "byteOffset": 1000800,
      "componentType": 5126,
      "count": 344,
      "max": [
        0,
        0,
        1
      ],
      "min": [
        0,
        0,
        1
      ],
      "type": "VEC3"
    },
    {
      "bufferView": 1,
      "byteOffset": 332224,
      "componentType": 5126,
      "count": 344,
      "max": [
        1,
        1
      ],
      "min": [
        0,
        0
      ],
      "type": "VEC2"
    },
    {
      "bufferView": 0,
      "byteOffset": 971520,
      "componentType": 5125,
      "count": 1026,
      "max": [
        343
      ],
      "min": [
        0
      ],
      "type": "SCALAR"
    },
    {
      "bufferView": 2,
      "byteOffset": 1004928,
      "componentType": 5126,
      "count": 4,
      "max": [
        50,
        36.763374328613281,
        0
      ],
      "min": [
        -50,
        -36.763374328613281,
        0
      ],
      "type": "VEC3"
    },
    {
      "bufferView": 2,
      "byteOffset": 1004976,
      "componentType": 5126,
      "count": 4,
      "max": [
        0,
        0,
        1
      ],
      "min": [
        0,
        0,
        1
      ],
      "type": "VEC3"
    },
    {
      "bufferView": 1,
      "byteOffset": 334976,
      "componentType": 5126,
      "count": 4,
      "max": [
        1,
        1
      ],
      "min": [
        0,
        0
      ],
      "type": "VEC2"
    },
    {
      "bufferView": 0,
      "byteOffset": 975624,
      "componentType": 5125,
      "count": 6,
      "max": [
        3
      ],
      "min": [
        0
      ],
      "type": "SCALAR"
    }
  ],
  "asset": {
    "extras": {
      "author": "robaskew (https://sketchfab.com/robaskew)",
      "license": "CC-BY-4.0 (http://creativecommons.org/licenses/by/4.0/)",
      "source": "https://sketchfab.com/3d-models/iceland-1901-geology-658f6b8533cf489996e69da02d9d69e9",
      "title": "Iceland 1901 Geology"
    },
    "generator": "Sketchfab-8.51.0",
    "version": "2.0"
  },
  "bufferViews": [
    {
      "buffer": 0,
      "byteLength": 975648,
      "byteOffset": 0,
      "name": "floatBufferViews",
      "target": 34963
    },
    {
      "buffer": 0,
      "byteLength": 335008,
      "byteOffset": 975648,
      "byteStride": 8,
      "name": "floatBufferViews",
      "target": 34962
    },
    {
      "buffer": 0,
      "byteLength": 1005024,
      "byteOffset": 1310656,
      "byteStride": 12,
      "name": "floatBufferViews",
      "target": 34962
    }
  ],
  "buffers": [
    {
      "byteLength": 2315680,
      "uri": "scene.bin"
    }
  ],
  "extensionsUsed": [
    "KHR_materials_unlit"
  ],
  "images": [
    {
      "uri": "textures/material_0_baseColor.png"
    }
  ],
  "materials": [
    {
      "doubleSided": true,
      "emissiveFactor": [
        0,
        0,
        0
      ],
      "extensions": {
        "KHR_materials_unlit": {}
      },
      "name": "material_0",
      "pbrMetallicRoughness": {
        "baseColorFactor": [
          1,
          1,
          1,
          1
        ],
        "baseColorTexture": {
          "index": 0,
          "texCoord": 0
        },
        "metallicFactor": 0,
        "roughnessFactor": 1
      }
    },
    {
      "doubleSided": false,
      "emissiveFactor": [
        0,
        0,
        0
      ],
      "extensions": {
        "KHR_materials_unlit": {}
      },
      "name": "material_1",
      "pbrMetallicRoughness": {
        "baseColorFactor": [
          0.80000000000000004,
          0.73333300000000001,
          0.66666700000000001,
          1
        ],
        "metallicFactor": 0,
        "roughnessFactor": 1
      }
    }
  ],
  "meshes": [
    {
      "primitives": [
        {
          "attributes": {
            "NORMAL": 1,
            "POSITION": 0,
            "TEXCOORD_0": 2
          },
          "indices": 3,
          "material": 0,
          "mode": 4
        }
      ]
    },
    {
      "primitives": [
        {
          "attributes": {
            "NORMAL": 5,
            "POSITION": 4,
            "TEXCOORD_0": 6
          },
          "indices": 7,
          "material": 1,
          "mode": 4
        }
      ]
    },
    {
      "primitives": [
        {
          "attributes": {
            "NORMAL": 9,
            "POSITION": 8,
            "TEXCOORD_0": 10
          },
          "indices": 11,
          "material": 1,
          "mode": 4
        }
      ]
    },
    {
      "primitives": [
        {
          "attributes": {
            "NORMAL": 13,
            "POSITION": 12,
            "TEXCOORD_0": 14
          },
          "indices": 15,
          "material": 1,
          "mode": 4
        }
      ]
    },
    {
      "primitives": [
        {
          "attributes": {
            "NORMAL": 17,
            "POSITION": 16,
            "TEXCOORD_0": 18
          },
          "indices": 19,
          "material": 1,
          "mode": 4
        }
      ]
    },
    {
      "primitives": [
        {
          "attributes": {
            "NORMAL": 21,
            "POSITION": 20,
            "TEXCOORD_0": 22
          },
          "indices": 23,
          "material": 1,
          "mode": 4
        }
      ]
    }
  ],
  "nodes": [
    {
      "children": [
        1
      ],
      "name": "RootNode (gltf orientation matrix)",
      "rotation": [
        -0.70710678118654746,
        -0,
        -0,
        0.70710678118654757
      ]
    },
    {
      "children": [
        2
      ],
      "name": "RootNode (model correction matrix)"
    },
    {
      "children": [
        3
      ],
      "name": "root"
    },
    {
      "children": [
        4
      ],
      "matrix": [
        1,
        0,
        0,
        0,
        0,
        2.2204460492503131e-16,
        1,
        0,
        0,
        -1,
        2.2204460492503131e-16,
        0,
        0,
        0,
        0,
        1
      ],
      "name": "GLTF_SceneRootNode"
    },
    {
      "children": [
        5
      ],
      "matrix": [
        1,
        0,
        0,
        0,
        0,
        -2.2204460492503131e-16,
        -1,
        0,
        0,
        1,
        -2.2204460492503131e-16,
        0,
        0,
        0,
        0,
        1
      ],
      "name": "is_50v_haedarlikan copy_6"
    },
    {
      "children": [
        6,
        7,
        9,
        11,
        13,
        15
      ],
      "matrix": [
        1,
        0,
        0,
        0,
        0,
        1,
        0,
        0,
        0,
        0,
        0.001674625207670033,
        0,
        0,
        0,
        0,
        1
      ],
      "name": "_5"
    },
    {
      "mesh": 0,
      "name": ""
    },
    {
      "children": [
        8
      ],
      "matrix": [
        1,
        0,
        0,
        0,
        0,
        -2.2204460492503131e-16,
        1,
        0,
        0,
        -1,
        -2.2204460492503131e-16,
        0,
        0,
        -36.763374328613281,
        0,
        1
      ],
      "name": "side_0"
    },
    {
      "mesh": 1,
      "name": ""
    },
    {
      "children": [
        10
      ],
      "matrix": [
        -1,
        1.2246468525851679e-16,
        0,
        0,
        0,
        -2.2204460492503131e-16,
        1,
        0,
        1.2246468525851679e-16,
        1,
        -2.2204460492503131e-16,
        0,
        0,
        36.763374328613281,
        0,
        1
      ],
      "name": "side_1"
    },
    {
      "mesh": 2,
      "name": ""
    },
    {
      "children": [
        12
      ],
      "matrix": [
        -2.2204460492503131e-16,
        0,
        1,
        0,
        0,
        1,
        0,
        0,
        -1,
        0,
        -2.2204460492503131e-16,
        0,
        -50,
        0,
        0,
        1
      ],
      "name": "side_2"
    },
    {
      "mesh": 3,
      "name": ""
    },
    {
      "children": [
        14
      ],
      "matrix": [
        -2.2204460492503131e-16,
        0,
        -1,
        0,
        0,
        1,
        0,
        0,
        1,
        0,
        -2.2204460492503131e-16,
        0,
        50,
        0,
        0,
        1
      ],
      "name": "side_3"
    },
    {
      "mesh": 4,
      "name": ""
    },
    {
      "children": [
        16
      ],
      "matrix": [
        1,
        0,
        0,
        0,
        0,
        -1,
        1.2246468525851679e-16,
        0,
        0,
        -1.2246468525851679e-16,
        -1,
        0,
        0,
        0,
        -895.72283935546875,
        1
      ],
      "name": "bottom_4"
    },
    {
      "mesh": 5,
      "name": ""
    }
  ],
  "samplers": [
    {
      "magFilter": 9729,
      "minFilter": 9987,
      "wrapS": 33071,
      "wrapT": 33071
    }
  ],
  "scene": 0,
  "scenes": [
    {
      "name": "OSG_Scene",
      "nodes": [
        0
      ]
    }
  ],
  "textures": [
    {
      "sampler": 0,
      "source": 0
    }
  ]
}

